# xmcd CD database file
#
# Track frame offsets:
#	150
#	24885
#	48308
#	75203
#	98926
#	125131
#	145629
#	169659
#	191807
#	214877
#	240242
#	263057
#	282550
#	308733
#
# Disc length: 4402 seconds
#
# Revision: 0
# Processed by: cddbd v1.5.2PL0 Copyright (c) Steve Scherf et al.
# Submitted via: CDex 1.51
#
DISCID=ba11300e
DTITLE=Michel Pépé - L'archange du soleil
DYEAR=2012
DGENRE=New Age
TTITLE0=L'être d'amour 
TTITLE1=Divin nectar 
TTITLE2=La nature de l'esprit
TTITLE3=Le lac des anges 
TTITLE4=Ciel radieux
TTITLE5=La pureté du coeur
TTITLE6=Célébration céleste 
TTITLE7=Les ailes de la liberté 
TTITLE8=La splendeur du soleil 
TTITLE9=Beauté stellaire 
TTITLE10=Dans la sphère infinie 
TTITLE11=Les couleurs astrales 
TTITLE12=La fête nuptiale 
TTITLE13=Lumière universelle 
EXTD=YEAR: 2012
EXTT0=
EXTT1=
EXTT2=
EXTT3=
EXTT4=
EXTT5=
EXTT6=
EXTT7=
EXTT8=
EXTT9=
EXTT10=
EXTT11=
EXTT12=
EXTT13=
PLAYORDER=
